<mxfile host="app.diagrams.net" modified="2021-09-27T22:05:15.422Z" agent="5.0 (Windows NT 10.0; Win64; x64) AppleWebKit/537.36 (KHTML, like Gecko) Chrome/93.0.4577.82 Safari/537.36" etag="EZgP8EamkpH8vAIhDmma" version="15.2.9" type="github" pages="2">
  <diagram id="LbfOuyoUKyHGHjYWHX6o" name="Atual">
    <mxGraphModel dx="862" dy="482" grid="1" gridSize="10" guides="1" tooltips="1" connect="1" arrows="1" fold="1" page="1" pageScale="1" pageWidth="827" pageHeight="1169" math="0" shadow="0">
      <root>
        <mxCell id="0" />
        <mxCell id="1" parent="0" />
        <mxCell id="xToUhkDtTZNY3_3VCSSt-6" style="edgeStyle=orthogonalEdgeStyle;rounded=0;orthogonalLoop=1;jettySize=auto;html=1;" edge="1" parent="1" source="xToUhkDtTZNY3_3VCSSt-1" target="xToUhkDtTZNY3_3VCSSt-4">
          <mxGeometry relative="1" as="geometry" />
        </mxCell>
        <mxCell id="xToUhkDtTZNY3_3VCSSt-1" value="Cliente" style="shape=umlActor;verticalLabelPosition=bottom;verticalAlign=top;html=1;outlineConnect=0;" vertex="1" parent="1">
          <mxGeometry x="100" y="190" width="50" height="90" as="geometry" />
        </mxCell>
        <mxCell id="xToUhkDtTZNY3_3VCSSt-2" value="Quero bebidas!" style="shape=callout;whiteSpace=wrap;html=1;perimeter=calloutPerimeter;" vertex="1" parent="1">
          <mxGeometry x="80" y="100" width="120" height="80" as="geometry" />
        </mxCell>
        <mxCell id="xToUhkDtTZNY3_3VCSSt-3" value="Actor" style="shape=umlActor;verticalLabelPosition=bottom;verticalAlign=top;html=1;outlineConnect=0;" vertex="1" parent="1">
          <mxGeometry x="340" width="30" height="60" as="geometry" />
        </mxCell>
        <mxCell id="xToUhkDtTZNY3_3VCSSt-9" style="edgeStyle=orthogonalEdgeStyle;rounded=0;orthogonalLoop=1;jettySize=auto;html=1;entryX=0;entryY=0.5;entryDx=0;entryDy=0;" edge="1" parent="1" source="xToUhkDtTZNY3_3VCSSt-4" target="xToUhkDtTZNY3_3VCSSt-8">
          <mxGeometry relative="1" as="geometry" />
        </mxCell>
        <mxCell id="xToUhkDtTZNY3_3VCSSt-10" value="Pagamento via cartão" style="edgeLabel;html=1;align=center;verticalAlign=middle;resizable=0;points=[];" vertex="1" connectable="0" parent="xToUhkDtTZNY3_3VCSSt-9">
          <mxGeometry x="0.1971" y="-1" relative="1" as="geometry">
            <mxPoint as="offset" />
          </mxGeometry>
        </mxCell>
        <mxCell id="xToUhkDtTZNY3_3VCSSt-4" value="Actor" style="shape=umlActor;verticalLabelPosition=bottom;verticalAlign=top;html=1;outlineConnect=0;" vertex="1" parent="1">
          <mxGeometry x="340" y="200" width="30" height="60" as="geometry" />
        </mxCell>
        <mxCell id="xToUhkDtTZNY3_3VCSSt-5" value="Actor" style="shape=umlActor;verticalLabelPosition=bottom;verticalAlign=top;html=1;outlineConnect=0;" vertex="1" parent="1">
          <mxGeometry x="330" y="330" width="30" height="60" as="geometry" />
        </mxCell>
        <mxCell id="xToUhkDtTZNY3_3VCSSt-7" value="Oi! Eu vendo bebidas!" style="shape=callout;whiteSpace=wrap;html=1;perimeter=calloutPerimeter;" vertex="1" parent="1">
          <mxGeometry x="340" y="110" width="96" height="80" as="geometry" />
        </mxCell>
        <mxCell id="xToUhkDtTZNY3_3VCSSt-12" style="edgeStyle=orthogonalEdgeStyle;rounded=0;orthogonalLoop=1;jettySize=auto;html=1;" edge="1" parent="1" source="xToUhkDtTZNY3_3VCSSt-8" target="xToUhkDtTZNY3_3VCSSt-11">
          <mxGeometry relative="1" as="geometry" />
        </mxCell>
        <mxCell id="xToUhkDtTZNY3_3VCSSt-8" value="Pega um bilhete" style="rounded=0;whiteSpace=wrap;html=1;" vertex="1" parent="1">
          <mxGeometry x="615" y="200" width="120" height="60" as="geometry" />
        </mxCell>
        <mxCell id="xToUhkDtTZNY3_3VCSSt-16" style="edgeStyle=orthogonalEdgeStyle;rounded=0;orthogonalLoop=1;jettySize=auto;html=1;entryX=0.5;entryY=0;entryDx=0;entryDy=0;entryPerimeter=0;" edge="1" parent="1" source="xToUhkDtTZNY3_3VCSSt-11" target="xToUhkDtTZNY3_3VCSSt-14">
          <mxGeometry relative="1" as="geometry" />
        </mxCell>
        <mxCell id="xToUhkDtTZNY3_3VCSSt-25" value="Pega uma baita fila" style="edgeLabel;html=1;align=center;verticalAlign=middle;resizable=0;points=[];" vertex="1" connectable="0" parent="xToUhkDtTZNY3_3VCSSt-16">
          <mxGeometry x="-0.2842" y="2" relative="1" as="geometry">
            <mxPoint as="offset" />
          </mxGeometry>
        </mxCell>
        <mxCell id="xToUhkDtTZNY3_3VCSSt-11" value="Vai até um bar" style="rounded=0;whiteSpace=wrap;html=1;" vertex="1" parent="1">
          <mxGeometry x="615" y="310" width="120" height="60" as="geometry" />
        </mxCell>
        <mxCell id="xToUhkDtTZNY3_3VCSSt-22" style="edgeStyle=orthogonalEdgeStyle;rounded=0;orthogonalLoop=1;jettySize=auto;html=1;" edge="1" parent="1" source="xToUhkDtTZNY3_3VCSSt-13" target="xToUhkDtTZNY3_3VCSSt-21">
          <mxGeometry relative="1" as="geometry" />
        </mxCell>
        <mxCell id="xToUhkDtTZNY3_3VCSSt-13" value="Barman" style="shape=umlActor;verticalLabelPosition=bottom;verticalAlign=top;html=1;outlineConnect=0;" vertex="1" parent="1">
          <mxGeometry x="500" y="525" width="30" height="60" as="geometry" />
        </mxCell>
        <mxCell id="xToUhkDtTZNY3_3VCSSt-20" style="edgeStyle=orthogonalEdgeStyle;rounded=0;orthogonalLoop=1;jettySize=auto;html=1;" edge="1" parent="1" source="xToUhkDtTZNY3_3VCSSt-14" target="xToUhkDtTZNY3_3VCSSt-13">
          <mxGeometry relative="1" as="geometry" />
        </mxCell>
        <mxCell id="xToUhkDtTZNY3_3VCSSt-14" value="Pessoa que pega o bilhete" style="shape=umlActor;verticalLabelPosition=bottom;verticalAlign=top;html=1;outlineConnect=0;" vertex="1" parent="1">
          <mxGeometry x="660" y="480" width="30" height="60" as="geometry" />
        </mxCell>
        <mxCell id="xToUhkDtTZNY3_3VCSSt-23" style="edgeStyle=orthogonalEdgeStyle;rounded=0;orthogonalLoop=1;jettySize=auto;html=1;" edge="1" parent="1" source="xToUhkDtTZNY3_3VCSSt-21" target="xToUhkDtTZNY3_3VCSSt-1">
          <mxGeometry relative="1" as="geometry" />
        </mxCell>
        <mxCell id="xToUhkDtTZNY3_3VCSSt-21" value="Prepara o drink" style="rounded=0;whiteSpace=wrap;html=1;" vertex="1" parent="1">
          <mxGeometry x="240" y="525" width="120" height="60" as="geometry" />
        </mxCell>
      </root>
    </mxGraphModel>
  </diagram>
  <diagram id="Va9MojO8QsFdr79AgOGF" name="Proposto">
    <mxGraphModel dx="862" dy="482" grid="1" gridSize="10" guides="1" tooltips="1" connect="1" arrows="1" fold="1" page="1" pageScale="1" pageWidth="827" pageHeight="1169" math="0" shadow="0">
      <root>
        <mxCell id="wxbrJlIcoLtCQT_Ncpi5-0" />
        <mxCell id="wxbrJlIcoLtCQT_Ncpi5-1" parent="wxbrJlIcoLtCQT_Ncpi5-0" />
        <mxCell id="wxbrJlIcoLtCQT_Ncpi5-6" style="edgeStyle=orthogonalEdgeStyle;rounded=0;orthogonalLoop=1;jettySize=auto;html=1;entryX=0;entryY=0.5;entryDx=0;entryDy=0;" edge="1" parent="wxbrJlIcoLtCQT_Ncpi5-1" source="wxbrJlIcoLtCQT_Ncpi5-2" target="wxbrJlIcoLtCQT_Ncpi5-5">
          <mxGeometry relative="1" as="geometry" />
        </mxCell>
        <mxCell id="wxbrJlIcoLtCQT_Ncpi5-2" value="Cliente" style="shape=umlActor;verticalLabelPosition=bottom;verticalAlign=top;html=1;outlineConnect=0;" vertex="1" parent="wxbrJlIcoLtCQT_Ncpi5-1">
          <mxGeometry x="70" y="50" width="40" height="70" as="geometry" />
        </mxCell>
        <mxCell id="wxbrJlIcoLtCQT_Ncpi5-5" value="Entrou no bar, pegou uma pulseira e carregou com créditos" style="rounded=0;whiteSpace=wrap;html=1;" vertex="1" parent="wxbrJlIcoLtCQT_Ncpi5-1">
          <mxGeometry x="200" y="55" width="180" height="60" as="geometry" />
        </mxCell>
        <mxCell id="wxbrJlIcoLtCQT_Ncpi5-15" style="edgeStyle=orthogonalEdgeStyle;rounded=0;orthogonalLoop=1;jettySize=auto;html=1;entryX=0.5;entryY=0;entryDx=0;entryDy=0;" edge="1" parent="wxbrJlIcoLtCQT_Ncpi5-1" source="wxbrJlIcoLtCQT_Ncpi5-7" target="wxbrJlIcoLtCQT_Ncpi5-13">
          <mxGeometry relative="1" as="geometry">
            <Array as="points">
              <mxPoint x="270" y="450" />
              <mxPoint x="170" y="450" />
            </Array>
          </mxGeometry>
        </mxCell>
        <mxCell id="wxbrJlIcoLtCQT_Ncpi5-7" value="Vendedora com celular" style="shape=umlActor;verticalLabelPosition=bottom;verticalAlign=top;html=1;outlineConnect=0;" vertex="1" parent="wxbrJlIcoLtCQT_Ncpi5-1">
          <mxGeometry x="250" y="345" width="40" height="80" as="geometry" />
        </mxCell>
        <mxCell id="wxbrJlIcoLtCQT_Ncpi5-14" style="edgeStyle=orthogonalEdgeStyle;rounded=0;orthogonalLoop=1;jettySize=auto;html=1;entryX=0.5;entryY=0;entryDx=0;entryDy=0;" edge="1" parent="wxbrJlIcoLtCQT_Ncpi5-1" source="wxbrJlIcoLtCQT_Ncpi5-10" target="wxbrJlIcoLtCQT_Ncpi5-13">
          <mxGeometry relative="1" as="geometry" />
        </mxCell>
        <mxCell id="wxbrJlIcoLtCQT_Ncpi5-10" value="Cliente" style="shape=umlActor;verticalLabelPosition=bottom;verticalAlign=top;html=1;outlineConnect=0;" vertex="1" parent="wxbrJlIcoLtCQT_Ncpi5-1">
          <mxGeometry x="70" y="350" width="40" height="70" as="geometry" />
        </mxCell>
        <mxCell id="wxbrJlIcoLtCQT_Ncpi5-11" value="Quer bebidas?" style="shape=callout;whiteSpace=wrap;html=1;perimeter=calloutPerimeter;" vertex="1" parent="wxbrJlIcoLtCQT_Ncpi5-1">
          <mxGeometry x="260" y="260" width="120" height="80" as="geometry" />
        </mxCell>
        <mxCell id="wxbrJlIcoLtCQT_Ncpi5-12" value="Quero!!" style="shape=callout;whiteSpace=wrap;html=1;perimeter=calloutPerimeter;" vertex="1" parent="wxbrJlIcoLtCQT_Ncpi5-1">
          <mxGeometry x="70" y="265" width="120" height="80" as="geometry" />
        </mxCell>
        <mxCell id="wxbrJlIcoLtCQT_Ncpi5-20" style="edgeStyle=orthogonalEdgeStyle;rounded=0;orthogonalLoop=1;jettySize=auto;html=1;" edge="1" parent="wxbrJlIcoLtCQT_Ncpi5-1" source="wxbrJlIcoLtCQT_Ncpi5-13" target="wxbrJlIcoLtCQT_Ncpi5-19">
          <mxGeometry relative="1" as="geometry" />
        </mxCell>
        <mxCell id="wxbrJlIcoLtCQT_Ncpi5-13" value="Celular debita a grana da pulseira e faz pedido para barman" style="rounded=0;whiteSpace=wrap;html=1;" vertex="1" parent="wxbrJlIcoLtCQT_Ncpi5-1">
          <mxGeometry x="110" y="480" width="120" height="60" as="geometry" />
        </mxCell>
        <mxCell id="wxbrJlIcoLtCQT_Ncpi5-22" style="edgeStyle=orthogonalEdgeStyle;rounded=0;orthogonalLoop=1;jettySize=auto;html=1;entryX=0;entryY=0.5;entryDx=0;entryDy=0;" edge="1" parent="wxbrJlIcoLtCQT_Ncpi5-1" source="wxbrJlIcoLtCQT_Ncpi5-16" target="wxbrJlIcoLtCQT_Ncpi5-21">
          <mxGeometry relative="1" as="geometry" />
        </mxCell>
        <mxCell id="wxbrJlIcoLtCQT_Ncpi5-16" value="Barman" style="shape=umlActor;verticalLabelPosition=bottom;verticalAlign=top;html=1;outlineConnect=0;" vertex="1" parent="wxbrJlIcoLtCQT_Ncpi5-1">
          <mxGeometry x="480" y="460" width="30" height="60" as="geometry" />
        </mxCell>
        <mxCell id="wxbrJlIcoLtCQT_Ncpi5-18" value="Vendedora com celular" style="shape=umlActor;verticalLabelPosition=bottom;verticalAlign=top;html=1;outlineConnect=0;" vertex="1" parent="wxbrJlIcoLtCQT_Ncpi5-1">
          <mxGeometry x="170" y="720" width="40" height="80" as="geometry" />
        </mxCell>
        <mxCell id="wxbrJlIcoLtCQT_Ncpi5-19" value="Ok. Vai para o bar 5. Sua bebida estará na cor laranja daqui 7 minutos" style="shape=callout;whiteSpace=wrap;html=1;perimeter=calloutPerimeter;" vertex="1" parent="wxbrJlIcoLtCQT_Ncpi5-1">
          <mxGeometry x="120" y="600" width="150" height="110" as="geometry" />
        </mxCell>
        <mxCell id="wxbrJlIcoLtCQT_Ncpi5-24" style="edgeStyle=orthogonalEdgeStyle;rounded=0;orthogonalLoop=1;jettySize=auto;html=1;entryX=0.5;entryY=0;entryDx=0;entryDy=0;" edge="1" parent="wxbrJlIcoLtCQT_Ncpi5-1" source="wxbrJlIcoLtCQT_Ncpi5-21" target="wxbrJlIcoLtCQT_Ncpi5-23">
          <mxGeometry relative="1" as="geometry" />
        </mxCell>
        <mxCell id="wxbrJlIcoLtCQT_Ncpi5-21" value="Confere qual é a próxima bebida a ser preparada" style="rounded=0;whiteSpace=wrap;html=1;" vertex="1" parent="wxbrJlIcoLtCQT_Ncpi5-1">
          <mxGeometry x="590" y="460" width="120" height="60" as="geometry" />
        </mxCell>
        <mxCell id="wxbrJlIcoLtCQT_Ncpi5-25" style="edgeStyle=orthogonalEdgeStyle;rounded=0;orthogonalLoop=1;jettySize=auto;html=1;entryX=1;entryY=0.5;entryDx=0;entryDy=0;" edge="1" parent="wxbrJlIcoLtCQT_Ncpi5-1" source="wxbrJlIcoLtCQT_Ncpi5-23" target="wxbrJlIcoLtCQT_Ncpi5-21">
          <mxGeometry relative="1" as="geometry">
            <Array as="points">
              <mxPoint x="730" y="630" />
              <mxPoint x="730" y="490" />
            </Array>
          </mxGeometry>
        </mxCell>
        <mxCell id="wxbrJlIcoLtCQT_Ncpi5-23" value="Prepara bebida do cliente e deixa no lugar" style="rounded=0;whiteSpace=wrap;html=1;" vertex="1" parent="wxbrJlIcoLtCQT_Ncpi5-1">
          <mxGeometry x="590" y="610" width="120" height="60" as="geometry" />
        </mxCell>
      </root>
    </mxGraphModel>
  </diagram>
</mxfile>
